<?xml version="1.0" encoding="iso-8859-1"?>
<!-- Uploaded to: SVG Repo, www.svgrepo.com, Generator: SVG Repo Mixer Tools -->
<svg height="800px" width="800px" version="1.1" id="Capa_1" xmlns="http://www.w3.org/2000/svg" xmlns:xlink="http://www.w3.org/1999/xlink" 
	 viewBox="0 0 301.001 301.001" xml:space="preserve">
<g>
	<path style="fill:#010002;" d="M182.784,151.696c-7.794,9.143-14.811,15.833-14.745,15.773c0.065-0.054-6.086,7.435-14.637,15.877
		c-6.875,6.783-14.517,13.478-22.985,19.836c-9.605,7.218-24.623,8.153-32.776,3.176c-8.159-4.971-23.845-15.055-35.582-12.483
		c-9.861,2.159-22.953,9.393-38.704,27.984c-37.138,43.85-3.867,57.54,19.189,75.222c23.078,17.672,99.209-26.102,168.932-97.419
		c69.729-71.312,95.989-145.087,76.685-166.805c-19.309-21.718-35.403-53.901-76.43-13.679
		c-17.394,17.057-23.654,30.644-25.09,40.635c-1.713,11.895,9.48,26.809,15.034,34.582c5.553,7.778,5.711,22.822-0.789,32.928
		C195.163,136.238,189.05,144.348,182.784,151.696z"/>
</g>
</svg>